<?xml version="1.0" encoding="UTF-8"?>
<svg width="133px" height="80px" viewBox="0 0 133 80" version="1.1" xmlns="http://www.w3.org/2000/svg" xmlns:xlink="http://www.w3.org/1999/xlink">
    <!-- Generator: Sketch 57.1 (83088) - https://sketch.com -->
    <title>Slice</title>
    <desc>Created with Sketch.</desc>
    <g id="Page-1" stroke="none" stroke-width="1" fill="none" fill-rule="evenodd">
        <g id="Logo-1">
            <path d="M50.3378995,62.5022831 L50.3378995,45.8082192 C50.3378995,45.4063927 50.5570776,45.1506849 50.9589041,45.1506849 L51.5068493,45.1506849 C51.8721461,45.1506849 52.1278539,45.369863 52.1278539,45.8082192 L52.1278539,53.3333333 L62.5753425,53.3333333 L62.5753425,45.8082192 C62.5753425,45.4063927 62.7945205,45.1506849 63.196347,45.1506849 L63.7077626,45.1506849 C64.109589,45.1506849 64.3652968,45.369863 64.3652968,45.8082192 L64.3652968,62.5022831 C64.3652968,62.9041096 64.1461187,63.1598174 63.7077626,63.1598174 L63.196347,63.1598174 C62.7945205,63.1598174 62.5753425,62.9406393 62.5753425,62.5022831 L62.5753425,54.9406393 L52.1278539,54.9406393 L52.1278539,62.5022831 C52.1278539,62.9041096 51.9086758,63.1598174 51.5068493,63.1598174 L50.9589041,63.1598174 C50.5570776,63.1598174 50.3378995,62.9041096 50.3378995,62.5022831 Z M66.7762557,56.6575342 C66.7762557,52.8584475 69.8082192,49.9726027 73.5342466,49.9726027 C77.2968037,49.9726027 80.3287671,52.8219178 80.3287671,56.6575342 C80.3287671,60.5296804 77.2968037,63.4520548 73.5707763,63.4520548 C69.8447489,63.4520548 66.7762557,60.5296804 66.7762557,56.6575342 Z M68.56621,56.6575342 C68.56621,59.652968 70.8310502,61.9178082 73.5707763,61.9178082 C76.3105023,61.9178082 78.5388128,59.652968 78.5388128,56.6575342 C78.5388128,53.7351598 76.2739726,51.543379 73.5707763,51.543379 C70.8310502,51.543379 68.56621,53.7351598 68.56621,56.6575342 Z M82.7031963,60.0913242 L82.7031963,45.8082192 C82.7031963,45.4063927 82.9223744,45.1506849 83.3242009,45.1506849 L83.7990868,45.1506849 C84.2009132,45.1506849 84.456621,45.369863 84.456621,45.8082192 L84.456621,59.7990868 C84.456621,61.4063927 85.2237443,61.5890411 85.7716895,61.6621005 C86.0639269,61.6986301 86.3196347,61.8447489 86.3196347,62.2100457 L86.3196347,62.5753425 C86.3196347,62.9406393 86.1369863,63.2328767 85.6621005,63.2328767 C84.6027397,63.2328767 82.7031963,62.9041096 82.7031963,60.0913242 Z M88.9497717,60.0913242 L88.9497717,45.8082192 C88.9497717,45.4063927 89.1689498,45.1506849 89.5707763,45.1506849 L90.0456621,45.1506849 C90.4474886,45.1506849 90.7031963,45.369863 90.7031963,45.8082192 L90.7031963,59.7990868 C90.7031963,61.4063927 91.4703196,61.5890411 92.0182648,61.6621005 C92.3105023,61.6986301 92.56621,61.8447489 92.56621,62.2100457 L92.56621,62.5753425 C92.56621,62.9406393 92.3835616,63.2328767 91.9086758,63.2328767 C90.8493151,63.2328767 88.9497717,62.9041096 88.9497717,60.0913242 Z M94.0639269,59.6894977 C94.0639269,55.4885845 99.43379,55.2694064 101.917808,55.2694064 L102.648402,55.2694064 L102.648402,54.8675799 C102.648402,52.3835616 101.296804,51.543379 99.4703196,51.543379 C98.0456621,51.543379 96.9497717,52.0913242 96.3652968,52.456621 C96,52.6392694 95.7077626,52.56621 95.4885845,52.2374429 L95.3424658,51.9817352 C95.1232877,51.652968 95.196347,51.3242009 95.5251142,51.1050228 C96.1826484,50.7031963 97.6073059,49.9726027 99.6164384,49.9726027 C102.684932,49.9726027 104.401826,51.6894977 104.401826,54.9041096 L104.401826,62.5022831 C104.401826,62.9041096 104.182648,63.1598174 103.780822,63.1598174 L103.378995,63.1598174 C102.977169,63.1598174 102.721461,62.9406393 102.721461,62.5022831 L102.721461,61.4794521 C102.721461,60.8949772 102.794521,60.4931507 102.794521,60.4931507 L102.757991,60.4931507 C102.794521,60.4931507 101.589041,63.4155251 98.4109589,63.4155251 C96.2191781,63.4520548 94.0639269,62.173516 94.0639269,59.6894977 Z M95.8538813,59.543379 C95.8538813,60.7488584 96.803653,61.9908676 98.7031963,61.9908676 C101.187215,61.9908676 102.648402,59.43379 102.648402,57.1689498 L102.648402,56.5479452 L101.917808,56.5479452 C99.9086758,56.5844749 95.8538813,56.6575342 95.8538813,59.543379 Z M107.068493,62.5022831 L107.068493,50.9223744 C107.068493,50.5205479 107.287671,50.2648402 107.726027,50.2648402 L108.200913,50.2648402 C108.56621,50.2648402 108.821918,50.4840183 108.821918,50.9223744 L108.821918,52.4200913 C108.821918,52.9315068 108.712329,53.3333333 108.712329,53.3333333 L108.748858,53.3333333 C109.223744,52.1643836 110.90411,49.9726027 113.936073,49.9726027 C117.150685,49.9726027 118.246575,51.7990868 118.246575,54.9406393 L118.246575,62.4657534 C118.246575,62.8675799 118.027397,63.1232877 117.589041,63.1232877 L117.114155,63.1232877 C116.712329,63.1232877 116.493151,62.9041096 116.493151,62.4657534 L116.493151,55.3789954 C116.493151,53.369863 116.164384,51.5799087 113.680365,51.5799087 C110.940639,51.5799087 108.785388,53.8447489 108.785388,56.8401826 L108.785388,62.5022831 C108.785388,62.9041096 108.56621,63.1598174 108.164384,63.1598174 L107.689498,63.1598174 C107.287671,63.1598174 107.068493,62.9041096 107.068493,62.5022831 Z M121.16895,56.6940639 C121.16895,52.6392694 123.579909,49.9726027 126.940639,49.9726027 C130.045662,49.9726027 131.141553,52.56621 131.141553,52.56621 L131.178082,52.56621 C131.178082,52.56621 131.105023,52.1278539 131.105023,51.5799087 L131.105023,45.8082192 C131.105023,45.4063927 131.324201,45.1506849 131.762557,45.1506849 L132.237443,45.1506849 C132.639269,45.1506849 132.858447,45.369863 132.858447,45.8082192 L132.858447,62.5022831 C132.858447,62.9041096 132.639269,63.1598174 132.237443,63.1598174 L131.799087,63.1598174 C131.39726,63.1598174 131.141553,62.9406393 131.141553,62.5388128 L131.141553,61.5525114 C131.141553,61.0776256 131.251142,60.7488584 131.251142,60.7488584 L131.214612,60.7488584 C131.214612,60.7488584 130.118721,63.4520548 126.757991,63.4520548 C123.324201,63.4520548 121.16895,60.6757991 121.16895,56.6940639 Z M122.958904,56.6940639 C122.958904,59.8721461 124.60274,61.8812785 127.013699,61.8812785 C129.16895,61.8812785 131.178082,60.347032 131.178082,56.6940639 C131.178082,54.1004566 129.863014,51.543379 127.086758,51.543379 C124.821918,51.543379 122.958904,53.4429224 122.958904,56.6940639 Z" id="Holland" fill="#34375A"></path>
            <g id="Group" transform="translate(50.045662, 19.726027)" fill="#34375A" fill-rule="nonzero">
                <path d="M13.5525114,0.511415525 L12.9680365,0.511415525 C12.6027397,0.511415525 12.3835616,0.657534247 12.2374429,0.98630137 L8.40182648,9.64383562 C8.14611872,10.2283105 7.85388128,11.0319635 7.70776256,11.3607306 C7.56164384,11.0319635 7.26940639,10.2283105 7.01369863,9.64383562 L3.14155251,1.02283105 C3.03196347,0.694063927 2.77625571,0.547945205 2.4109589,0.547945205 L1.82648402,0.547945205 C1.46118721,0.547945205 1.20547945,0.767123288 1.20547945,1.13242009 L0.0365296804,15.4520548 L0.0365296804,15.4520548 C0.0365296804,15.6712329 0.0730593607,15.8173516 0.182648402,15.9634703 C0.292237443,16.0730594 0.438356164,16.1461187 0.657534247,16.1461187 L1.09589041,16.1461187 C1.46118721,16.1461187 1.71689498,15.9269406 1.71689498,15.5616438 L2.52054795,5.29680365 C2.55707763,4.74885845 2.59360731,3.98173516 2.59360731,3.50684932 C2.77625571,3.98173516 3.06849315,4.82191781 3.28767123,5.33333333 L6.72146119,12.8219178 C6.83105023,13.1506849 7.08675799,13.2968037 7.45205479,13.2968037 L7.96347032,13.2968037 C8.32876712,13.2968037 8.54794521,13.1506849 8.65753425,12.8219178 L12.1278539,5.33333333 C12.347032,4.82191781 12.6392694,4.05479452 12.7853881,3.57990868 C12.7853881,4.05479452 12.8219178,4.78538813 12.8584475,5.29680365 L13.6621005,15.5616438 C13.6986301,15.9269406 13.9178082,16.1461187 14.283105,16.1461187 L14.7214612,16.1461187 C14.9406393,16.1461187 15.086758,16.0730594 15.196347,15.9634703 C15.3059361,15.8538813 15.3424658,15.6712329 15.3424658,15.4520548 L14.173516,1.13242009 C14.173516,0.730593607 13.9543379,0.511415525 13.5525114,0.511415525 Z" id="Path"></path>
                <path d="M44.7853881,13.4429224 L44.6027397,13.1872146 C44.4931507,13.0410959 44.347032,12.9315068 44.2009132,12.9315068 C44.0547945,12.9315068 43.8721461,12.9680365 43.7260274,13.1141553 C42.8127854,13.8812785 41.2420091,14.7579909 39.196347,14.7579909 C35.6164384,14.7579909 33.0228311,11.9817352 33.0228311,8.1826484 C33.0228311,4.456621 35.543379,1.8630137 39.1232877,1.8630137 C40.6210046,1.8630137 42.0821918,2.33789954 43.3607306,3.21461187 C43.6894977,3.43378995 44.0182648,3.39726027 44.2374429,3.10502283 L44.4200913,2.81278539 C44.6757991,2.37442922 44.4931507,2.08219178 44.3105023,1.93607306 C43.5068493,1.31506849 41.7899543,0.255707763 39.086758,0.255707763 C34.5570776,0.255707763 31.2694064,3.61643836 31.2694064,8.21917808 C31.2694064,12.9315068 34.5936073,16.3652968 39.1598174,16.3652968 C41.9360731,16.3652968 43.8356164,15.086758 44.7488584,14.3196347 C45.0045662,14.0639269 45.0410959,13.7351598 44.7853881,13.4429224 Z" id="Path"></path>
                <path d="M26.3378995,9.78995434 C26.1917808,9.49771689 26.0456621,9.31506849 25.9726027,9.24200913 C27.6894977,8.69406393 28.8584475,6.97716895 28.8584475,4.93150685 C28.8584475,3.14155251 28.0182648,1.6803653 26.5205479,0.98630137 C25.826484,0.657534247 25.0228311,0.547945205 23.6712329,0.547945205 L19.5068493,0.547945205 C19.1050228,0.547945205 18.8858447,0.767123288 18.8858447,1.20547945 L18.8858447,15.5251142 C18.8858447,15.9269406 19.1050228,16.1826484 19.5068493,16.1826484 L19.9817352,16.1826484 C20.347032,16.1826484 20.6027397,15.9269406 20.6027397,15.5251142 L20.6027397,9.6803653 L24.3287671,9.6803653 L27.5799087,15.7442922 C27.7260274,16.0365297 27.9817352,16.1826484 28.3105023,16.1826484 L28.8949772,16.1826484 C29.1141553,16.1826484 29.2968037,16.109589 29.369863,15.9634703 C29.4429224,15.8173516 29.4429224,15.6347032 29.3333333,15.4155251 L26.3378995,9.78995434 Z M27.1415525,4.96803653 C27.1415525,6.86757991 25.9726027,8.10958904 24.1826484,8.10958904 L20.6027397,8.10958904 L20.6027397,2.08219178 L23.5616438,2.08219178 C24.6940639,2.08219178 25.1324201,2.19178082 25.5342466,2.37442922 C26.5570776,2.77625571 27.1415525,3.76255708 27.1415525,4.96803653 Z" id="Shape"></path>
            </g>
            <polygon id="Path" fill="#00B0E1" points="29.5525114 28.7488584 39.3789954 34.4109589 39.3789954 23.0502283"></polygon>
            <polygon id="Path" fill="#1DBCE8" points="39.3789954 34.4109589 29.5525114 28.7488584 29.5525114 40.109589"></polygon>
            <polygon id="Path" fill="#FDBF38" points="39.3789954 23.0502283 29.5525114 17.3881279 29.5525114 28.7488584"></polygon>
            <polygon id="Path" fill="#2571CE" points="29.5525114 51.4703196 39.3789954 57.1324201 39.3789954 45.7716895"></polygon>
            <polygon id="Path" fill="#2B85D9" points="39.3789954 57.1324201 29.5525114 51.4703196 29.5525114 62.8310502"></polygon>
            <polygon id="Path" fill="#00C694" points="19.7260274 11.6894977 29.5525114 17.3881279 29.5525114 6.02739726"></polygon>
            <polygon id="Path" fill="#00E0AD" points="29.5525114 17.3881279 19.7260274 11.6894977 19.7260274 23.0502283"></polygon>
            <polygon id="Path" fill="#39C7EF" points="19.7260274 34.4109589 29.5525114 40.109589 29.5525114 28.7488584"></polygon>
            <polygon id="Path" fill="#70289F" points="19.7260274 45.7716895 29.5525114 51.4703196 29.5525114 40.109589"></polygon>
            <polygon id="Path" fill="#69DBF9" points="29.5525114 40.109589 19.7260274 34.4109589 19.7260274 45.7716895"></polygon>
            <polygon id="Path" fill="#2E96E3" points="19.7260274 57.1324201 29.5525114 62.8310502 29.5525114 51.4703196"></polygon>
            <polygon id="Path" fill="#37BAF7" points="29.5525114 62.8310502 19.7260274 57.1324201 19.7260274 68.4931507"></polygon>
            <polygon id="Path" fill="#33A8ED" points="9.8630137 62.8310502 19.7260274 68.4931507 19.7260274 57.1324201"></polygon>
            <polygon id="Path" fill="#9426B0" points="39.3789954 45.7716895 29.5525114 40.109589 29.5525114 51.4703196"></polygon>
            <polygon id="Path" fill="#FD9C19" points="19.7260274 23.0502283 29.5525114 28.7488584 29.5525114 17.3881279"></polygon>
            <polygon id="Path" fill="#00AC7C" points="39.3789954 0.328767123 39.3789954 11.6894977 29.5525114 6.02739726"></polygon>
            <polygon id="Path" fill="#00B988" points="39.3789954 11.6894977 29.5525114 17.3881279 29.5525114 6.02739726"></polygon>
            <polygon id="Path" fill="#9426B0" points="19.7260274 34.4109589 9.8630137 28.7488584 9.8630137 40.109589"></polygon>
            <polygon id="Path" fill="#00AC7C" points="0.0365296804 23.0502283 0.0365296804 34.4109589 9.8630137 28.7488584"></polygon>
            <polygon id="Path" fill="#70289F" points="0.0365296804 34.4109589 9.8630137 40.109589 9.8630137 28.7488584"></polygon>
            <polygon id="Path" fill="#EC1C74" points="19.7260274 57.1324201 9.8630137 51.4703196 9.8630137 62.8310502"></polygon>
            <polygon id="Path" fill="#BD027B" points="0.0365296804 57.1324201 9.8630137 62.8310502 9.8630137 51.4703196"></polygon>
            <polygon id="Path" fill="#00C694" points="19.7260274 23.0502283 9.8630137 17.3881279 9.8630137 28.7488584"></polygon>
            <path d="M9.8630137,28.7488584 L9.8630137,17.3881279 C9.57077626,17.5707763 0.840182648,22.6118721 0.0365296804,23.0502283 L9.8630137,28.7488584 Z" id="Path" fill="#00B988"></path>
            <polygon id="Path" fill="#00D09E" points="9.8630137 17.3881279 19.7260274 23.0502283 19.7260274 11.6894977"></polygon>
            <polygon id="Path" fill="#39C7EF" points="19.7260274 45.7716895 9.8630137 40.109589 9.8630137 51.4703196"></polygon>
            <polygon id="Path" fill="#4FD0F3" points="9.8630137 40.109589 19.7260274 45.7716895 19.7260274 34.4109589"></polygon>
            <polygon id="Path" fill="#2E96E3" points="19.7260274 68.4931507 9.8630137 62.8310502 9.8630137 74.1917808"></polygon>
            <polygon id="Path" fill="#2571CE" points="9.8630137 74.1917808 0.0365296804 68.4931507 0.0365296804 79.8538813"></polygon>
            <polygon id="Path" fill="#2B85D9" points="0.0365296804 68.4931507 9.8630137 74.1917808 9.8630137 62.8310502"></polygon>
            <polygon id="Path" fill="#00B0E1" points="9.8630137 51.4703196 0.0365296804 45.7716895 0.0365296804 57.1324201"></polygon>
            <polygon id="Path" fill="#1DBCE8" points="0.0365296804 45.7716895 9.8630137 51.4703196 9.8630137 40.109589"></polygon>
        </g>
    </g>
</svg>