<?xml version="1.0" encoding="iso-8859-1"?>
<svg version="1.1" xmlns="http://www.w3.org/2000/svg" xmlns:xlink="http://www.w3.org/1999/xlink" x="0px" y="0px"
	viewBox="0 0 358.081 358.081" style="enable-background:new 0 0 358.081 358.081;" xml:space="preserve">
	<path style="fill:#E74424;" d="M313.863,1.224H179.04H44.218C19.797,1.224,0,21.021,0,45.44v266.896
				c0,24.42,19.797,44.217,44.218,44.217H179.04l87.697,0.304l1-46.429c0-24.421,19.797-44.218,44.217-44.218l45.69-0.822
				l0.436-0.178V45.441C358.08,21.021,338.283,1.224,313.863,1.224z M262.663,269.655c0,5.272-4.279,9.549-9.553,9.549h-41.092
				c-5.272,0-9.549-4.276-9.549-9.549v-61.901h-46.616v61.901c0,5.272-4.273,9.549-9.553,9.549h-41.331
				c-5.272,0-9.552-4.276-9.552-9.549V92.127c0-5.276,4.279-9.553,9.552-9.553H146.3c5.279,0,9.553,4.276,9.553,9.553v64.824h46.616
				V92.126c0-5.276,4.276-9.553,9.549-9.553h41.092c5.273,0,9.553,4.276,9.553,9.553V269.655z" />
	<path style="fill:#D43D21;"
		d="M266.738,309.618v47.24l91.343-91.646h-47.126C286.534,265.211,266.738,285.197,266.738,309.618z" />
	<path style="fill:#F7F1E6;" d="M253.11,82.575h-41.092c-5.272,0-9.549,4.276-9.549,9.553v64.824h-46.616V92.127
				c0-5.276-4.273-9.553-9.553-9.553h-41.331c-5.272,0-9.552,4.276-9.552,9.553v177.527c0,5.272,4.279,9.549,9.552,9.549H146.3
				c5.279,0,9.553-4.276,9.553-9.549v-61.901h46.616v61.901c0,5.272,4.276,9.549,9.549,9.549h41.092
				c5.273,0,9.553-4.276,9.553-9.549V92.127C262.663,86.851,258.384,82.575,253.11,82.575z" />
</svg>