<?xml version="1.0" encoding="iso-8859-1"?>
<svg version="1.1" xmlns="http://www.w3.org/2000/svg" xmlns:xlink="http://www.w3.org/1999/xlink" x="0px" y="0px"
	viewBox="0 0 393.48 393.48" style="enable-background:new 0 0 393.48 393.48;" xml:space="preserve">
	<rect x="211.803" y="299.599" style="fill:#88C9B3;" width="107.18" height="66.63" />
	<rect x="74.493" y="166.349" style="fill:#88C9B3;" width="107.18" height="66.62" />
	<rect x="74.493" y="27.249" style="fill:#E77200;" width="244.49" height="38.58" />
	<path style="fill:#FCF4DE;" d="M345.983,0.249v392.98H47.493V0.249H345.983z M318.983,366.229v-66.63h-107.18v66.63H318.983z
				 M318.983,273.789v-15h-107.18v15H318.983z M318.983,240.469v-15h-107.18v15H318.983z M318.983,207.159v-15h-107.18v15H318.983z
				 M318.983,173.849v-15h-107.18v15H318.983z M318.983,140.529v-15h-107.18v15H318.983z M318.983,107.219v-15h-107.18v15H318.983z
				 M318.983,65.829v-38.58H74.493v38.58H318.983z M181.673,373.729v-15H74.493v15H181.673z M181.673,340.419v-15H74.493v15H181.673
				z M181.673,307.099v-15H74.493v15H181.673z M181.673,273.789v-15H74.493v15H181.673z M181.673,232.969v-66.62H74.493v66.62
				H181.673z M181.673,140.529v-15H74.493v15H181.673z M181.673,107.219v-15H74.493v15H181.673z" />
	<rect x="211.803" y="258.789" style="fill:#7C6655;" width="107.18" height="15" />
	<rect x="211.803" y="225.469" style="fill:#7C6655;" width="107.18" height="15" />
	<rect x="211.803" y="192.159" style="fill:#7C6655;" width="107.18" height="15" />
	<rect x="211.803" y="158.849" style="fill:#7C6655;" width="107.18" height="15" />
	<rect x="211.803" y="125.529" style="fill:#7C6655;" width="107.18" height="15" />
	<rect x="211.803" y="92.219" style="fill:#7C6655;" width="107.18" height="15" />
	<rect x="74.493" y="358.729" style="fill:#7C6655;" width="107.18" height="15" />
	<rect x="74.493" y="325.419" style="fill:#7C6655;" width="107.18" height="15" />
	<rect x="74.493" y="292.099" style="fill:#7C6655;" width="107.18" height="15" />
	<rect x="74.493" y="258.789" style="fill:#7C6655;" width="107.18" height="15" />
	<rect x="74.493" y="125.529" style="fill:#7C6655;" width="107.18" height="15" />
	<rect x="74.493" y="92.219" style="fill:#7C6655;" width="107.18" height="15" />
</svg>